<svg width="307" height="58" viewBox="0 0 307 58" fill="none" xmlns="http://www.w3.org/2000/svg">
<g clip-path="url(#clip0_186_4872)">
<path d="M75.2637 25.5683H76.5516C76.6735 25.5685 76.7942 25.5447 76.9068 25.4983C77.0195 25.4519 77.1219 25.3838 77.2081 25.2979C77.2944 25.212 77.3628 25.11 77.4095 24.9977C77.4562 24.8854 77.4802 24.7651 77.4802 24.6435V15.1309C77.4798 14.8855 77.3818 14.6502 77.2077 14.4768C77.0336 14.3034 76.7976 14.2061 76.5516 14.2061H75.2637C75.0179 14.2064 74.7823 14.304 74.6085 14.4773C74.4347 14.6507 74.3369 14.8857 74.3365 15.1309V24.6435C74.3365 24.8888 74.4342 25.124 74.6081 25.2974C74.782 25.4709 75.0178 25.5683 75.2637 25.5683" fill="#EE0033"/>
<path d="M66.3021 25.6973C67.0815 25.6973 67.9957 25.6554 68.4752 24.6858L73.9034 14.2021H71.9187C71.5335 14.2049 71.1571 14.3175 70.8339 14.5267C70.5107 14.7359 70.2543 15.0329 70.0948 15.3827L66.6744 22.6353C66.5933 22.8058 66.4325 23.0847 66.2978 23.0847C66.1631 23.0847 66.0081 22.8058 65.9226 22.6353L62.4848 15.3871C62.3245 15.0379 62.0679 14.7414 61.7449 14.5324C61.4219 14.3233 61.0459 14.2103 60.6609 14.2065H58.6719L64.1001 24.6902C64.6376 25.719 65.7386 25.7017 66.3021 25.7017" fill="#EE0033"/>
<path d="M135.015 25.5682C135.261 25.5682 135.497 25.4708 135.671 25.2974C135.845 25.1239 135.942 24.8887 135.942 24.6434V23.6319H135.163C134.599 23.6319 133.424 23.6102 132.719 23.1391C131.805 22.538 131.886 21.4658 131.886 20.6942V12.4575C131.886 12.2119 131.788 11.9763 131.614 11.8025C131.44 11.6288 131.204 11.5313 130.957 11.5312H129.671C129.425 11.5313 129.188 11.6288 129.014 11.8025C128.84 11.9763 128.742 12.2119 128.742 12.4575V21.8502C128.742 23.2865 129.254 24.1218 130.166 24.7229C131.053 25.3009 132.074 25.5581 133.981 25.5581L135.015 25.5682Z" fill="#EE0033"/>
<path d="M95.6482 21.8609C95.6482 23.2972 96.1582 24.1325 97.0723 24.7336C97.9589 25.3116 98.9802 25.5688 100.887 25.5688H101.921C102.167 25.5688 102.403 25.4714 102.577 25.298C102.751 25.1245 102.848 24.8893 102.848 24.644V23.6325H102.069C101.504 23.6325 100.33 23.6108 99.6234 23.1397C98.7108 22.5386 98.7904 21.4664 98.7904 20.6947V16.1328H105.347V21.858C105.347 23.2944 105.857 24.1296 106.771 24.7307C107.656 25.3087 108.678 25.5659 110.586 25.5659H111.619C111.74 25.5661 111.861 25.5423 111.974 25.4959C112.086 25.4495 112.189 25.3814 112.275 25.2955C112.361 25.2096 112.429 25.1075 112.476 24.9953C112.522 24.883 112.546 24.7626 112.546 24.6411V23.6296H111.768C111.204 23.6296 110.022 23.6079 109.322 23.1368C108.41 22.5357 108.491 21.4635 108.491 20.6919V16.1328H111.533C111.779 16.1328 112.015 16.0354 112.189 15.8619C112.363 15.6885 112.46 15.4533 112.46 15.208V14.1965H108.485V12.4653C108.485 12.2199 108.387 11.9845 108.214 11.8109C108.04 11.6372 107.804 11.5394 107.558 11.5391H106.27C106.148 11.5391 106.027 11.563 105.915 11.6096C105.802 11.6562 105.7 11.7244 105.614 11.8104C105.528 11.8965 105.46 11.9986 105.413 12.111C105.367 12.2233 105.343 12.3438 105.343 12.4653V14.2066H98.7847V12.4653C98.7848 12.3438 98.761 12.2233 98.7145 12.111C98.668 11.9986 98.5997 11.8965 98.5136 11.8104C98.4275 11.7244 98.3252 11.6562 98.2126 11.6096C98.1001 11.563 97.9794 11.5391 97.8575 11.5391H96.5696C96.3236 11.5394 96.0877 11.6372 95.9139 11.8109C95.7401 11.9845 95.6424 12.2199 95.6424 12.4653V14.2066H93.6809V15.2181C93.6809 15.4634 93.7786 15.6986 93.9525 15.872C94.1263 16.0455 94.3622 16.1429 94.6081 16.1429H95.6482V21.8609Z" fill="#EE0033"/>
<path d="M92.3164 20.2939C92.906 19.8229 92.9871 19.1582 92.9871 18.5801C92.9871 17.1438 92.638 15.7277 90.9735 14.8924C89.6566 14.2277 87.9312 14.1699 86.271 14.1699C84.9281 14.1699 82.5044 14.1699 80.9514 15.2421C79.3984 16.3143 79.2535 17.8663 79.2535 19.9948C79.2535 21.4948 79.3347 23.0597 80.2676 24.1319C81.4498 25.4614 83.165 25.5683 84.6137 25.5683H91.5921C91.7139 25.5685 91.8345 25.5447 91.9471 25.4983C92.0597 25.4519 92.1619 25.3838 92.2481 25.2978C92.3342 25.2119 92.4025 25.1099 92.449 24.9976C92.4956 24.8853 92.5194 24.765 92.5192 24.6435V23.632H85.5655C84.4065 23.632 83.094 23.5033 82.6913 22.2809C82.566 21.7686 82.5028 21.2432 82.503 20.7159H90.7779C91.3414 20.7159 91.8789 20.6306 92.3092 20.2824L92.3164 20.2939ZM89.0322 18.794H84.5615C83.4258 18.794 82.5044 19.3128 82.5044 19.95V18.794C82.5305 18.044 82.5044 17.4212 83.1491 16.8432C84.0081 16.0716 85.2989 16.0933 86.1305 16.0933C87.0171 16.0933 88.0384 16.1366 88.8178 16.6077C89.0871 16.7629 89.3123 16.9841 89.472 17.2504C89.6317 17.5167 89.7207 17.8192 89.7305 18.1293C89.7305 18.4299 89.6508 18.794 89.0322 18.794" fill="#EE0033"/>
<path d="M118.613 25.5681H125.584C125.706 25.5683 125.827 25.5445 125.939 25.4981C126.052 25.4517 126.154 25.3836 126.24 25.2977C126.326 25.2118 126.394 25.1097 126.441 24.9975C126.488 24.8852 126.511 24.7648 126.511 24.6433V23.6318H119.552C118.393 23.6318 117.08 23.5032 116.677 22.2807C116.553 21.7683 116.49 21.243 116.489 20.7157H124.767C125.331 20.7157 125.868 20.6305 126.298 20.2822C126.889 19.8111 126.97 19.1464 126.97 18.5684C126.97 17.1321 126.621 15.7159 124.955 14.8807C123.638 14.216 121.913 14.1582 120.253 14.1582C118.91 14.1582 116.486 14.1582 114.933 15.2304C113.38 16.3026 113.24 17.8661 113.24 19.9947C113.24 21.4946 113.321 23.0596 114.261 24.1318C115.443 25.4612 117.158 25.5681 118.607 25.5681H118.613ZM116.491 18.7938C116.518 18.0439 116.491 17.4211 117.135 16.8431C117.996 16.0714 119.285 16.0931 120.118 16.0931C121.005 16.0931 122.025 16.1364 122.804 16.6075C123.074 16.7626 123.299 16.9837 123.459 17.25C123.619 17.5163 123.708 17.8189 123.718 18.1291C123.718 18.4297 123.637 18.7938 123.018 18.7938H118.548C117.412 18.7938 116.491 19.3126 116.491 19.9499V18.7938Z" fill="#EE0033"/>
<path d="M75.9084 13.1342H76.5516C76.7979 13.1342 77.0341 13.0366 77.2082 12.8629C77.3824 12.6892 77.4802 12.4536 77.4802 12.2079V11.9522C77.4802 11.8306 77.4562 11.7102 77.4095 11.5979C77.3628 11.4856 77.2944 11.3836 77.2081 11.2977C77.1219 11.2118 77.0195 11.1437 76.9068 11.0973C76.7942 11.0509 76.6735 11.0272 76.5516 11.0273H75.2652C75.1433 11.0272 75.0226 11.0509 74.9099 11.0973C74.7972 11.1437 74.6949 11.2118 74.6086 11.2977C74.5224 11.3836 74.4539 11.4856 74.4073 11.5979C74.3606 11.7102 74.3365 11.8306 74.3365 11.9522V14.2064H74.3525C74.4409 13.6819 75.0392 13.1342 75.9113 13.1342" fill="#EE0033"/>
<path d="M58.6719 42.8797V33.4379C58.6719 32.1499 59.4633 31.5059 61.0463 31.5059H73.1487C74.8707 31.5059 76.2064 31.7992 77.1557 32.3859C78.1051 32.9726 78.5803 33.974 78.5813 35.3901V41.1312C78.5774 41.5998 78.3873 42.0477 78.0527 42.3766C77.7181 42.7055 77.2662 42.8885 76.7965 42.8854H75.4926V36.0548C75.4926 35.1695 75.2642 34.5115 74.8074 34.0809C74.3506 33.6503 73.6031 33.4359 72.5648 33.4379H70.1687V41.1832C70.1652 41.6363 69.9816 42.0696 69.658 42.3877C69.3345 42.7058 68.8976 42.8827 68.4433 42.8797H67.083V33.4379H62.5486C62.0212 33.4379 61.7576 33.6522 61.7576 34.0809V41.1803C61.7561 41.4051 61.7102 41.6274 61.6225 41.8345C61.5348 42.0416 61.407 42.2294 61.2465 42.3872C61.086 42.5451 60.8959 42.6698 60.687 42.7543C60.4782 42.8388 60.2547 42.8814 60.0293 42.8797H58.6719Z" fill="black"/>
<path d="M96.2103 42.8797V33.4379C96.2103 32.1499 97.0013 31.5059 98.5833 31.5059H103.487C105.209 31.5059 106.545 31.7992 107.496 32.3859C108.446 32.9726 108.921 33.974 108.92 35.3901V42.8797H105.834V36.0548C105.834 35.1695 105.606 34.5115 105.149 34.0809C104.692 33.6503 103.945 33.4359 102.908 33.4379H100.087C99.5578 33.4379 99.2936 33.6522 99.2946 34.0809V42.8797H96.2103Z" fill="black"/>
<path d="M139.663 31.5063L131.331 46.5505H128.193L130.329 42.8382L124.106 31.5063H125.645C126.139 31.5045 126.623 31.6384 127.046 31.8933C127.468 32.1482 127.812 32.5143 128.04 32.9513L131.779 40.2371L135.826 32.788C136.04 32.3977 136.356 32.0722 136.74 31.8459C137.124 31.6195 137.562 31.5007 138.008 31.502L139.663 31.5063Z" fill="black"/>
<path d="M94.8313 37.2565C94.8313 39.4606 94.247 40.9842 93.0783 41.8271C91.9097 42.67 90.0139 43.092 87.3908 43.0929C84.7715 43.0929 82.8776 42.671 81.709 41.8271C80.5404 40.9832 79.9571 39.4597 79.959 37.2565C79.959 35.0812 80.5481 33.5717 81.7264 32.7278C82.9047 31.8839 84.7928 31.4619 87.3908 31.4619C89.9926 31.4619 91.8827 31.8839 93.061 32.7278C94.2392 33.5717 94.8279 35.0812 94.8269 37.2565H94.8313ZM83.1461 37.2565C83.1461 38.6726 83.4624 39.6774 84.095 40.2708C84.7276 40.8642 85.8262 41.1614 87.3908 41.1624C88.9554 41.1624 90.054 40.8652 90.6866 40.2708C91.3191 39.6764 91.6359 38.6716 91.6369 37.2565C91.6369 35.8538 91.3201 34.8592 90.6866 34.2725C90.053 33.6858 88.9544 33.3925 87.3908 33.3925C85.8262 33.3925 84.7276 33.6858 84.095 34.2725C83.4624 34.8592 83.1461 35.8538 83.1461 37.2565Z" fill="black"/>
<path d="M115.84 42.7876H122.739C122.859 42.7878 122.979 42.7643 123.09 42.7184C123.202 42.6725 123.303 42.6052 123.388 42.5202C123.474 42.4353 123.541 42.3344 123.587 42.2233C123.634 42.1122 123.657 41.9932 123.657 41.8729V40.8787H116.77C115.627 40.8787 114.325 40.7516 113.927 39.5421C113.803 39.0355 113.74 38.5159 113.74 37.9945H121.926C122.485 37.9945 123.017 37.9092 123.442 37.5696C124.021 37.1029 124.106 36.4454 124.106 35.8732C124.106 34.4527 123.76 33.0525 122.113 32.2245C120.809 31.5684 119.109 31.502 117.461 31.502C116.131 31.502 113.74 31.502 112.198 32.5612C110.657 33.6204 110.524 35.1709 110.524 37.2705C110.524 38.7545 110.603 40.3051 111.538 41.3643C112.707 42.6792 114.408 42.7847 115.843 42.7847L115.84 42.7876ZM113.743 36.0827C113.77 35.3399 113.743 34.7258 114.38 34.1521C115.232 33.3892 116.507 33.4108 117.331 33.4108C118.207 33.4108 119.214 33.4527 119.989 33.9195C120.256 34.0731 120.479 34.292 120.637 34.5555C120.795 34.8189 120.883 35.1183 120.893 35.4252C120.893 35.7214 120.814 36.0827 120.202 36.0827H115.777C114.652 36.0827 113.74 36.5957 113.74 37.2286L113.743 36.0827Z" fill="black"/>
</g>
<g clip-path="url(#clip1_186_4872)">
<path d="M27.6698 51.9225C40.4712 51.9225 50.8489 41.5711 50.8489 28.8021C50.8489 16.033 40.4712 5.68164 27.6698 5.68164C14.8683 5.68164 4.49072 16.033 4.49072 28.8021C4.49072 41.5711 14.8683 51.9225 27.6698 51.9225Z" fill="#EE0033"/>
<path d="M25.143 14.3164H22.01C21.2159 14.3164 20.4544 14.631 19.893 15.1911C19.3315 15.7511 19.0161 16.5107 19.0161 17.3027V40.3074C19.0161 40.6995 19.0936 41.0878 19.244 41.4501C19.3945 41.8125 19.615 42.1417 19.893 42.419C20.171 42.6963 20.501 42.9162 20.8643 43.0663C21.2275 43.2164 21.6168 43.2936 22.01 43.2936H25.143C25.2413 43.2936 25.3387 43.2743 25.4295 43.2368C25.5203 43.1993 25.6028 43.1443 25.6723 43.075C25.7418 43.0056 25.7969 42.9233 25.8345 42.8328C25.8721 42.7422 25.8915 42.6451 25.8915 42.547V40.3131C25.8915 40.1151 25.8127 39.9252 25.6723 39.7852C25.5319 39.6452 25.3416 39.5666 25.143 39.5666H20.2795V18.0391H25.143C25.3413 18.0376 25.5308 17.9577 25.6701 17.8169C25.8093 17.6761 25.8869 17.486 25.8857 17.2882V15.063C25.8857 14.866 25.8077 14.6769 25.6685 14.5371C25.5294 14.3973 25.3405 14.3179 25.143 14.3164Z" fill="white"/>
<path d="M33.3297 14.3164H30.1966C29.9983 14.3168 29.8083 14.3956 29.6683 14.5356C29.5282 14.6756 29.4496 14.8652 29.4496 15.063V17.2882C29.4496 17.486 29.5282 17.6756 29.6683 17.8156C29.8083 17.9556 29.9983 18.0344 30.1966 18.0348H35.0616V39.5695H30.1966C29.9983 39.5699 29.8083 39.6487 29.6683 39.7886C29.5282 39.9286 29.4496 40.1183 29.4496 40.316V42.5456C29.4496 42.7434 29.5282 42.933 29.6683 43.073C29.8083 43.213 29.9983 43.2918 30.1966 43.2922H33.3297C33.7236 43.2929 34.1137 43.2162 34.4778 43.0662C34.8419 42.9163 35.1728 42.6962 35.4514 42.4185C35.7301 42.1409 35.9511 41.8111 36.1017 41.448C36.2524 41.085 36.3297 40.6959 36.3293 40.303V17.3027C36.3293 16.91 36.2517 16.5212 36.1009 16.1585C35.9501 15.7959 35.729 15.4664 35.4504 15.189C35.1718 14.9116 34.8411 14.6918 34.4772 14.5421C34.1133 14.3923 33.7233 14.3157 33.3297 14.3164V14.3164Z" fill="white"/>
</g>
<rect x="154.8" y="11.4004" width="1.8" height="34.8" fill="#222222"/>
<path d="M177.142 38.7998H170.899C169.43 38.7998 168.696 38.0438 168.696 36.5318V25.9478C168.696 24.4358 169.43 23.6798 170.899 23.6798H176.753C177.746 23.6798 178.61 23.831 179.345 24.1334C180.079 24.4214 180.655 24.803 181.073 25.2782C181.505 25.739 181.843 26.315 182.088 27.0062C182.347 27.6974 182.513 28.3742 182.585 29.0366C182.671 29.6846 182.714 30.419 182.714 31.2398C182.714 32.0462 182.671 32.7806 182.585 33.443C182.513 34.1054 182.354 34.7822 182.11 35.4734C181.879 36.1646 181.562 36.7478 181.159 37.223C180.77 37.6838 180.23 38.0654 179.539 38.3678C178.862 38.6558 178.063 38.7998 177.142 38.7998ZM175.759 25.9478H172.627C172.195 25.9478 171.907 26.0198 171.763 26.1638C171.619 26.3078 171.547 26.5958 171.547 27.0278V35.4518C171.547 35.8838 171.619 36.1718 171.763 36.3158C171.907 36.4598 172.195 36.5318 172.627 36.5318H175.759C176.594 36.5318 177.286 36.4094 177.833 36.1646C178.38 35.9054 178.79 35.5166 179.064 34.9982C179.338 34.4798 179.525 33.9326 179.626 33.3566C179.726 32.7806 179.777 32.075 179.777 31.2398C179.777 30.4046 179.726 29.699 179.626 29.123C179.525 28.547 179.338 27.9998 179.064 27.4814C178.79 26.963 178.38 26.5814 177.833 26.3366C177.286 26.0774 176.594 25.9478 175.759 25.9478ZM196.409 33.0542C196.409 35.2718 195.927 36.8054 194.962 37.655C194.012 38.5046 192.464 38.9294 190.318 38.9294C188.173 38.9294 186.617 38.5046 185.653 37.655C184.702 36.8054 184.227 35.2718 184.227 33.0542C184.227 30.8654 184.709 29.3462 185.674 28.4966C186.639 27.647 188.187 27.2222 190.318 27.2222C192.449 27.2222 193.997 27.647 194.962 28.4966C195.927 29.3462 196.409 30.8654 196.409 33.0542ZM186.841 33.0542C186.841 34.4798 187.1 35.495 187.618 36.0998C188.137 36.6902 189.037 36.9854 190.318 36.9854C191.6 36.9854 192.5 36.6902 193.018 36.0998C193.537 35.495 193.796 34.4798 193.796 33.0542C193.796 31.643 193.537 30.6422 193.018 30.0518C192.5 29.4614 191.6 29.1662 190.318 29.1662C189.037 29.1662 188.137 29.4614 187.618 30.0518C187.1 30.6422 186.841 31.643 186.841 33.0542ZM198.548 27.3518H205.05C206.101 27.3518 206.9 27.6614 207.447 28.2806C207.995 28.8998 208.268 29.7134 208.268 30.7214V36.8558C208.268 38.1518 207.62 38.7998 206.324 38.7998H200.557C198.656 38.7998 197.706 37.6118 197.706 35.2358C197.706 34.127 197.943 33.2558 198.419 32.6222C198.894 31.9886 199.607 31.6718 200.557 31.6718H205.741V30.9374C205.741 29.843 205.208 29.2958 204.143 29.2958H198.548V27.3518ZM205.741 33.6158H201.529C200.723 33.6158 200.319 34.1558 200.319 35.2358C200.319 36.3158 200.723 36.8558 201.529 36.8558H205.093C205.525 36.8558 205.741 36.6398 205.741 36.2078V33.6158ZM210.265 38.7998V29.2958C210.265 27.9998 210.913 27.3518 212.209 27.3518H216.226C217.638 27.3518 218.732 27.647 219.51 28.2374C220.287 28.8278 220.676 29.8358 220.676 31.2614V38.7998H218.149V31.931C218.149 31.0382 217.962 30.3758 217.587 29.9438C217.213 29.5118 216.601 29.2958 215.751 29.2958H213.44C213.008 29.2958 212.792 29.5118 212.792 29.9438V38.7998H210.265ZM222.668 38.7998V23.6798H225.195V27.3518H228.629C230.041 27.3518 231.135 27.647 231.913 28.2374C232.69 28.8278 233.079 29.8358 233.079 31.2614V38.7998H230.552V31.931C230.552 31.0382 230.365 30.3758 229.99 29.9438C229.616 29.5118 229.004 29.2958 228.154 29.2958H225.195V38.7998H222.668ZM240.112 38.7998V29.2958C240.112 27.9998 240.76 27.3518 242.056 27.3518H246.074C247.485 27.3518 248.58 27.647 249.357 28.2374C250.135 28.8278 250.524 29.8358 250.524 31.2614V38.7998H247.996V31.931C247.996 31.0382 247.809 30.3758 247.435 29.9438C247.06 29.5118 246.448 29.2958 245.599 29.2958H243.288C242.856 29.2958 242.64 29.5118 242.64 29.9438V38.7998H240.112ZM260.529 38.7998H256.857C255.129 38.7998 253.912 38.3102 253.207 37.331C252.516 36.3518 252.17 34.9262 252.17 33.0542C252.17 31.1822 252.516 29.7638 253.207 28.799C253.898 27.8342 255.115 27.3518 256.857 27.3518H261.112C262.408 27.3518 263.056 27.9998 263.056 29.2958V37.9142C263.056 39.5414 262.66 40.7222 261.868 41.4566C261.091 42.2054 259.838 42.5798 258.11 42.5798H252.969V40.6358H258.11C259.55 40.6358 260.356 40.0238 260.529 38.7998ZM259.881 29.2958H257.484C256.893 29.2958 256.411 29.3822 256.036 29.555C255.662 29.7278 255.388 30.0014 255.216 30.3758C255.043 30.7502 254.928 31.139 254.87 31.5422C254.812 31.931 254.784 32.435 254.784 33.0542C254.784 33.6734 254.812 34.1846 254.87 34.5878C254.928 34.9766 255.043 35.3654 255.216 35.7542C255.388 36.1286 255.662 36.4094 256.036 36.5966C256.411 36.7694 256.893 36.8558 257.484 36.8558H260.529V29.9438C260.529 29.5118 260.313 29.2958 259.881 29.2958ZM265.045 38.7998V23.6798H267.572V27.3518H271.007C272.418 27.3518 273.512 27.647 274.29 28.2374C275.068 28.8278 275.456 29.8358 275.456 31.2614V38.7998H272.929V31.931C272.929 31.0382 272.742 30.3758 272.368 29.9438C271.993 29.5118 271.381 29.2958 270.532 29.2958H267.572V38.7998H265.045ZM277.448 38.7998V27.3518H279.976V38.7998H277.448ZM279.976 25.8398H277.448V23.507H279.976V25.8398ZM285.85 41.5862V39.4262H288.421V41.5862H285.85ZM292.287 38.7998H285.937C285.044 38.7998 284.302 38.6774 283.712 38.4326C283.136 38.1878 282.697 37.8062 282.394 37.2878C282.092 36.755 281.883 36.1646 281.768 35.5166C281.667 34.8686 281.617 34.0478 281.617 33.0542C281.617 30.8366 282.034 29.3102 282.87 28.475C283.719 27.6398 285.145 27.2222 287.146 27.2222C288.932 27.2222 290.293 27.5534 291.229 28.2158C292.179 28.8638 292.654 30.0446 292.654 31.7582C292.654 33.1982 292.064 33.9182 290.883 33.9182H284.23C284.23 34.9118 284.389 35.6534 284.706 36.143C285.037 36.6182 285.699 36.8558 286.693 36.8558H292.287V38.7998ZM284.23 31.9742H289.479C289.854 31.9742 290.041 31.751 290.041 31.3046C290.041 30.599 289.76 30.0662 289.198 29.7062C288.651 29.3462 287.967 29.1662 287.146 29.1662C286.081 29.1662 285.325 29.3894 284.878 29.8358C284.446 30.2678 284.23 30.9806 284.23 31.9742ZM290.214 26.7038L287.686 24.6086C287.499 24.4646 287.319 24.3926 287.146 24.3926C286.959 24.3926 286.772 24.4646 286.585 24.6086L284.058 26.7038L282.978 25.3646L286.088 22.9238C286.419 22.6646 286.765 22.535 287.125 22.535C287.456 22.535 287.802 22.6646 288.162 22.9238L291.294 25.3646L290.214 26.7038ZM296.246 27.3518H300.242C301.985 27.3518 303.201 27.8342 303.893 28.799C304.584 29.7638 304.929 31.1822 304.929 33.0542C304.929 34.9262 304.577 36.3518 303.871 37.331C303.18 38.3102 301.97 38.7998 300.242 38.7998H296.829V42.4718H294.302V29.2958C294.302 27.9998 294.95 27.3518 296.246 27.3518ZM296.829 29.8574V36.8558H299.616C300.725 36.8558 301.452 36.539 301.797 35.9054C302.143 35.2718 302.316 34.3214 302.316 33.0542C302.316 32.435 302.287 31.931 302.229 31.5422C302.172 31.139 302.057 30.7502 301.884 30.3758C301.711 30.0014 301.437 29.7278 301.063 29.555C300.689 29.3822 300.206 29.2958 299.616 29.2958H297.477C297.045 29.2958 296.829 29.483 296.829 29.8574Z" fill="#7A7A7A"/>
<defs>
<clipPath id="clip0_186_4872">
<rect width="80.9819" height="46.2408" fill="white" transform="translate(58.6719 5.68066)"/>
</clipPath>
<clipPath id="clip1_186_4872">
<rect width="46.3582" height="46.2408" fill="white" transform="translate(4.49084 5.68066)"/>
</clipPath>
</defs>
</svg>
